<svg xmlns="http://www.w3.org/2000/svg" viewBox="0 0 120 120" width="600" height="600" role="img" aria-label="Corte Caballero">
  <rect width="120" height="120" rx="16" fill="currentColor"/>
  <g fill="none" stroke="currentColor" stroke-width="2" stroke-linecap="round" stroke-linejoin="round">
    <path d="M30 70c8-16 16-22 30-22s22 6 30 22" />
    <path d="M30 70c6-4 12-8 20-10" />
    <path d="M80 48c4-6 6-12 6-18 0-6-4-10-10-10-8 0-18 6-26 6s-18-6-26-6c-6 0-10 4-10 10 0 6 2 12 6 18" />
  </g>
</svg>